<svg version="1.1" id="Layer_1" xmlns="http://www.w3.org/2000/svg" xmlns:xlink="http://www.w3.org/1999/xlink" x="0px" y="0px" width="100%" viewBox="0 0 1024 1024" enable-background="new 0 0 1024 1024" xml:space="preserve">

<path fill="#182C1B" opacity="1.000000" stroke="none" d="
M677.016357,649.764893 
	C663.415833,664.544250 648.174438,677.407104 631.255127,688.197021 
	C624.785339,692.323120 617.833313,695.693115 610.573975,699.723267 
	C609.596252,700.532654 609.145569,701.026489 608.694946,701.520264 
	C608.694946,701.520264 608.532776,701.634827 608.134033,701.498169 
	C607.395386,701.751526 607.055542,702.141479 606.715698,702.531494 
	C606.715698,702.531494 606.529541,702.650513 606.053955,702.461060 
	C604.413513,702.896851 603.248779,703.521973 602.084045,704.147095 
	C602.084045,704.147156 602.050232,704.057129 601.770020,704.062256 
	C601.013550,704.435608 600.537292,704.803894 600.061035,705.172180 
	C600.061035,705.172180 600.048096,705.076477 599.704346,705.053345 
	C594.880066,706.732727 590.435364,708.537659 585.912842,710.119873 
	C567.415222,716.591309 548.638306,722.165100 528.930725,722.912903 
	C514.889526,723.445740 500.736420,723.671265 486.761230,722.502930 
	C474.649200,721.490479 462.738800,718.194153 450.690521,716.202209 
	C447.589111,715.689392 443.955017,715.410645 442.326721,719.447754 
	C442.326721,719.447754 442.249146,719.303406 442.036011,719.320557 
	C441.570221,719.608032 441.317566,719.878357 441.064880,720.148743 
	C441.064880,720.148743 441.065216,720.062744 440.773804,720.082397 
	C440.054443,720.517517 439.626465,720.933044 439.198486,721.348572 
	C439.198486,721.348572 439.156433,721.213074 438.881226,721.187256 
	C438.313843,721.615479 438.021637,722.069519 437.729462,722.523499 
	C437.729462,722.523499 437.572479,722.648132 437.153717,722.507996 
	C436.009796,723.086304 435.284607,723.804688 434.559448,724.523132 
	C434.559448,724.523132 434.453247,724.512085 434.100464,724.404785 
	C432.513794,725.236511 431.279846,726.175537 430.045898,727.114502 
	C430.045898,727.114502 430.036346,727.032104 429.693024,727.035278 
	C428.458984,727.864868 427.568298,728.691223 426.677582,729.517639 
	C426.677582,729.517639 426.537048,729.603638 426.134094,729.475708 
	C425.052155,730.067383 424.373199,730.786987 423.694275,731.506592 
	C423.694275,731.506653 423.546509,731.616638 423.133667,731.482910 
	C421.984833,732.073486 421.248810,732.797852 420.512756,733.522217 
	C420.512756,733.522217 420.407776,733.430664 420.060211,733.354187 
	C419.009216,734.024902 418.305786,734.772095 417.602356,735.519287 
	C417.602325,735.519287 417.487305,735.524963 417.180298,735.479858 
	C416.618164,735.692871 416.363037,735.950989 416.107910,736.209106 
	C416.107941,736.209106 416.090485,736.107910 415.800171,736.105591 
	C415.098175,736.543335 414.686523,736.983459 414.274841,737.423584 
	C414.274841,737.423584 414.212585,737.258179 414.006836,737.293213 
	C413.563782,737.613464 413.326508,737.898621 413.089233,738.183838 
	C413.089264,738.183838 413.077576,738.089478 412.747986,738.065796 
	C411.638275,738.739868 410.858154,739.437500 410.078033,740.135193 
	C410.078033,740.135193 410.058533,740.042969 409.768494,740.071289 
	C409.050507,740.516541 408.622589,740.933594 408.194641,741.350586 
	C408.194611,741.350586 408.153503,741.210571 407.887512,741.186523 
	C407.356354,741.598816 407.091217,742.035217 406.826111,742.471619 
	C406.826080,742.471619 406.644623,742.714111 406.197571,742.570923 
	C405.195862,742.999939 404.641174,743.572083 404.086487,744.144165 
	C404.086487,744.144165 404.057373,744.048950 403.718140,744.042480 
	C402.494751,744.858093 401.610626,745.680115 400.726501,746.502136 
	C400.726471,746.502136 400.573090,746.637695 400.170746,746.510620 
	C399.189911,746.944214 398.611389,747.504944 398.032898,748.065674 
	C398.032898,748.065674 398.018158,747.997009 397.671204,748.016724 
	C396.334229,748.841309 395.344208,749.646118 394.354187,750.450928 
	C394.354187,750.450928 394.263824,750.327148 394.044189,750.337463 
	C393.576721,750.624573 393.328918,750.901306 393.081116,751.178101 
	C393.081116,751.178101 393.067749,751.085327 392.786163,751.078430 
	C392.023560,751.438904 391.542542,751.806274 391.061493,752.173645 
	C391.061493,752.173645 391.049072,752.058472 390.848969,752.157471 
	C390.456207,752.554749 390.263550,752.853088 390.070892,753.151367 
	C390.070892,753.151367 390.062103,753.063416 389.719788,753.051392 
	C388.474060,753.865356 387.570648,754.691345 386.667236,755.517334 
	C386.667236,755.517334 386.527679,755.598572 386.125183,755.469849 
	C384.994965,756.069275 384.267212,756.797485 383.539490,757.525696 
	C383.539459,757.525696 383.462891,757.468140 383.166565,757.438232 
	C382.609131,757.668274 382.348022,757.928284 382.086914,758.188232 
	C382.086914,758.188232 382.073639,758.090149 381.781494,758.094360 
	C381.104675,758.554626 380.720001,759.010681 380.335358,759.466797 
	C380.335358,759.466797 380.236786,759.304443 379.981812,759.345154 
	C379.404602,759.722412 379.082367,760.058960 378.760132,760.395569 
	C372.897949,763.985413 367.300018,768.142456 361.109283,771.027283 
	C352.611420,774.987305 344.919434,772.726196 338.482178,765.116089 
	C338.291595,764.466675 338.075165,764.268555 337.858704,764.070374 
	C337.858704,764.070374 337.945587,764.060730 337.948730,763.691101 
	C337.301270,756.945374 336.130310,750.572632 336.088593,744.192566 
	C335.890808,713.962402 336.024231,683.730103 335.944641,653.498840 
	C335.939880,651.699158 335.108246,649.901672 334.661377,648.103149 
	C334.284088,648.075867 334.055908,647.877258 333.915649,646.956360 
	C333.469269,645.982666 333.084076,645.559875 332.698883,645.137146 
	C332.698883,645.137146 332.874847,645.109131 332.797668,644.919312 
	C332.429352,644.506348 332.138184,644.283264 331.847015,644.060120 
	C331.847015,644.060120 331.956573,644.054504 331.859680,643.870361 
	C331.521881,643.460144 331.280975,643.233948 331.040039,643.007812 
	C327.234985,637.049866 323.429932,631.091980 319.257904,624.640930 
	C318.526123,623.799622 318.161316,623.451355 317.796509,623.103149 
	C317.796509,623.103149 317.895966,623.086365 317.926575,622.750244 
	C317.130493,621.476685 316.303802,620.539185 315.477112,619.601685 
	C315.477112,619.601685 315.440979,619.474854 315.557404,619.104126 
	C315.266907,618.379089 314.859985,618.024780 314.453064,617.670532 
	C314.453033,617.670532 314.387634,617.522644 314.461426,617.197327 
	C314.290436,616.620300 314.045685,616.368530 313.800934,616.116821 
	C313.800934,616.116821 313.903168,616.081604 313.900452,615.752197 
	C312.758057,613.851807 311.618408,612.280823 310.478760,610.709900 
	C310.478760,610.709900 310.343811,610.537476 310.493561,610.143188 
	C310.145599,609.168701 309.647888,608.588440 309.150208,608.008179 
	C308.745209,607.288391 308.340179,606.568542 307.950714,605.151245 
	C306.910706,602.667419 305.855133,600.881165 304.799561,599.094849 
	C304.799561,599.094849 304.902222,599.083496 304.904633,598.804810 
	C304.551453,598.037903 304.195892,597.549622 303.840302,597.061340 
	C303.840302,597.061340 303.932129,597.059998 303.947937,596.700317 
	C300.026886,586.307678 296.090057,576.274658 292.109985,565.800903 
	C291.981537,563.870178 292.084015,562.340759 291.780670,560.896545 
	C289.781799,551.379089 287.753143,541.866882 285.599213,532.383667 
	C285.027893,529.868164 283.984070,527.459900 283.157196,525.002441 
	C282.996857,520.953674 282.836517,516.904907 282.836273,512.005005 
	C282.506714,491.661011 283.583191,472.281647 286.984192,453.049408 
	C287.811005,448.373993 288.215851,443.623962 288.814697,438.908234 
	C288.860046,438.473206 288.905365,438.038147 289.260620,437.110291 
	C289.668182,436.253143 289.765839,435.888855 289.863495,435.524567 
	C289.863495,435.524567 289.767151,435.202179 290.121033,435.002777 
	C290.744354,434.598480 290.926575,434.333557 291.294739,433.764160 
	C292.454987,431.058685 293.530182,428.647003 294.191376,426.126740 
	C295.714722,420.320190 297.036926,414.460938 298.440796,408.623077 
	C298.440796,408.623077 298.589966,408.582275 298.895172,408.556366 
	C299.563232,406.922089 299.926117,405.313690 300.288940,403.705292 
	C300.288940,403.705292 300.333374,403.501434 300.732422,403.474762 
	C301.407806,402.593140 301.684174,401.738190 301.960510,400.883240 
	C305.705566,392.980194 308.980103,384.810944 313.275543,377.219330 
	C333.868805,340.823669 362.085785,311.610382 397.885101,289.372070 
	C399.145386,288.890503 399.868195,288.208923 400.591003,287.527344 
	C400.743622,287.602692 400.896271,287.678070 401.189941,287.762238 
	C403.367767,286.339508 405.404572,284.907959 407.441345,283.476410 
	C407.441345,283.476410 407.540466,283.501648 407.834930,283.547638 
	C408.406097,283.363708 408.682770,283.133789 408.959442,282.903839 
	C408.959442,282.903839 408.961487,282.984131 409.313629,282.966309 
	C414.085022,280.574188 418.504303,278.199829 422.923553,275.825470 
	C422.923553,275.825470 422.928619,275.921234 423.267731,275.935303 
	C424.910400,275.118927 426.213928,274.288452 427.517456,273.457947 
	C427.517456,273.457947 427.583160,273.515289 427.981323,273.646240 
	C430.458221,272.684631 432.536957,271.592041 434.615692,270.499481 
	C434.615692,270.499481 434.860229,270.479034 435.144775,270.649353 
	C440.961090,268.883423 446.492889,266.947235 452.429993,265.011688 
	C454.446442,264.663605 456.077942,264.389435 457.665527,263.954956 
	C479.126007,258.081482 500.858887,254.010422 523.207947,254.007217 
	C575.484802,253.999741 627.762207,253.866730 680.038147,254.084763 
	C694.755127,254.146118 709.467712,255.247635 724.182312,255.872040 
	C724.182312,255.872040 724.084656,255.919449 724.083130,256.171570 
	C724.713867,256.637482 725.346130,256.851288 725.978333,257.065063 
	C726.875427,257.855682 727.772522,258.646301 728.607849,259.880432 
	C728.794800,260.517090 729.043579,260.710205 729.292297,260.903320 
	C729.570801,261.313019 729.849304,261.722717 730.075439,262.849976 
	C730.346863,266.685181 730.911316,269.799805 730.950012,272.920959 
	C731.071594,282.736847 730.995850,292.555206 730.996094,302.372589 
	C730.997437,368.764771 730.983887,435.156982 731.078552,501.549011 
	C731.081177,503.363739 732.249512,505.176788 732.874329,506.990601 
	C732.929077,508.065460 732.983826,509.140350 732.570435,510.697388 
	C731.473389,517.598572 730.844421,524.017578 730.215454,530.436584 
	C730.029663,530.608215 729.970093,530.770142 729.702148,531.428955 
	C729.275574,533.671326 729.183472,535.407043 729.091370,537.142822 
	C729.091370,537.142822 729.076965,537.031128 728.801575,537.245178 
	C728.048096,540.687256 727.570068,543.915344 727.092041,547.143372 
	C727.092041,547.143372 727.078308,547.033691 726.807983,547.235596 
	C722.652161,559.934570 718.787720,572.438171 714.868469,584.924622 
	C713.687195,588.688171 712.353394,592.403809 711.089539,596.141418 
	C711.089539,596.141418 711.075256,596.042847 710.832275,596.194397 
	C710.429932,596.951477 710.270508,597.556946 710.111084,598.162476 
	C710.111084,598.162476 710.093323,598.051758 709.841064,598.226135 
	C709.633423,599.034485 709.678101,599.668518 709.722717,600.302490 
	C709.722717,600.302490 709.664917,600.491394 709.270752,600.502808 
	C707.639832,603.416931 706.403137,606.319580 705.166382,609.222229 
	C705.166382,609.222229 705.140991,609.096497 704.846497,609.198975 
	C704.067627,610.584778 703.583252,611.867981 703.098877,613.151245 
	C703.098877,613.151245 703.055237,613.062073 702.744873,613.083862 
	C700.973206,616.100525 699.512024,619.095337 698.050781,622.090149 
	C698.050781,622.090149 698.001709,622.029480 697.681946,622.061768 
	C696.500488,623.862793 695.638855,625.631592 694.777222,627.400452 
	C694.777222,627.400452 694.660706,627.578003 694.237183,627.539551 
	C693.233521,628.707520 692.653259,629.913879 692.072998,631.120239 
	C692.072998,631.120239 692.028076,631.039612 691.709717,631.073914 
	C691.048462,631.865601 690.705627,632.622986 690.362793,633.380432 
	C690.362793,633.380432 690.301880,633.230957 690.044189,633.310486 
	C689.556519,633.976379 689.326599,634.562683 689.096680,635.149048 
	C689.096680,635.149048 689.074463,635.062256 688.857910,635.175903 
	C688.493835,635.625305 688.346313,635.961121 688.198853,636.296875 
	C688.198853,636.296875 688.168091,636.144958 687.894409,636.219116 
	C686.780396,637.579468 685.940125,638.865540 685.099792,640.151672 
	C685.099792,640.151672 685.059326,640.058044 684.738281,640.091553 
	C684.102112,640.892761 683.786987,641.660522 683.471924,642.428284 
	C683.471924,642.428284 683.100403,642.105347 682.969482,642.256836 
	C682.573181,642.965271 682.307739,643.522217 682.042358,644.079163 
	C682.042358,644.079163 682.005066,644.016846 681.798584,644.134583 
	C681.409180,644.550781 681.226318,644.849304 681.043396,645.147766 
	C681.043030,645.474731 680.914978,645.739990 680.171265,646.127930 
	C679.561218,646.672607 679.439148,647.032959 679.317078,647.393250 
	C679.317078,647.393250 679.268616,647.247192 679.010681,647.277710 
	C678.173950,648.127136 677.595154,648.946045 677.016357,649.764893 
M359.827759,325.384583 
	C359.761841,325.730103 359.695953,326.075623 359.539978,326.567963 
	C359.539978,326.567963 359.444519,326.711334 358.792145,326.416138 
	C358.377838,327.102692 357.963531,327.789215 357.499176,328.445221 
	C357.499176,328.445221 357.441284,328.454163 356.826843,328.364532 
	C356.740692,328.711761 356.654541,329.059021 356.514923,329.531860 
	C356.514923,329.531860 356.480804,329.664062 355.802704,329.405579 
	C355.222015,330.306580 354.641296,331.207581 354.026093,332.028076 
	C354.026093,332.028076 354.108368,332.058136 353.421448,332.094177 
	C352.973633,332.770325 352.525818,333.446472 351.897491,334.653381 
	C351.333405,335.120911 350.769348,335.588440 349.664612,336.256958 
	C349.461731,336.572906 349.258850,336.888855 348.881989,337.845032 
	C331.843201,357.167847 318.057037,378.590240 306.783844,402.197632 
	C306.201294,403.822266 305.618744,405.446899 304.997803,407.018494 
	C304.997803,407.018494 305.063263,407.019928 304.394836,407.306580 
	C304.074799,408.612671 303.754761,409.918732 303.446686,411.293823 
	C303.446686,411.293823 303.473358,411.358582 302.715210,411.427917 
	C302.171722,413.329681 301.628235,415.231476 301.059479,417.034576 
	C301.059479,417.034576 301.161255,417.030579 300.515686,417.370392 
	C298.444153,423.099792 295.855133,428.700378 294.391327,434.581055 
	C288.305176,459.032104 284.901550,483.840820 286.078735,509.105621 
	C286.295380,513.755737 287.446320,518.362305 288.055847,522.953125 
	C288.055847,522.953125 288.111664,522.851685 288.037750,523.769592 
	C288.483002,540.017334 293.149353,555.390869 297.846558,570.747986 
	C298.303406,572.241638 299.390961,573.542480 300.092865,574.943481 
	C300.092865,574.943481 300.115845,574.852783 300.050507,575.624451 
	C301.075409,577.733093 302.100311,579.841736 303.038635,581.963928 
	C303.038635,581.963928 303.079437,581.886353 303.030548,582.690369 
	C304.819946,586.366577 306.609344,590.042847 308.337036,593.959045 
	C308.337036,593.959045 308.351410,593.711670 308.139801,594.489258 
	C310.468048,598.642334 312.796295,602.795349 315.036316,606.962158 
	C315.036316,606.962158 315.081818,606.885254 315.040222,607.623352 
	C315.543579,608.197632 316.046936,608.771973 316.639618,609.520874 
	C316.639618,609.520874 316.682312,609.712280 316.425018,610.194702 
	C316.660278,610.443970 316.895538,610.693237 317.040405,610.958984 
	C317.040405,610.958984 317.086884,610.879700 317.039459,611.623901 
	C317.813446,612.669128 318.587433,613.714417 319.212769,614.939087 
	C319.212769,614.939087 319.308868,614.726807 319.159363,615.421875 
	C319.827209,616.263733 320.495056,617.105652 321.743988,618.300171 
	C326.719360,625.893127 331.694733,633.486084 336.450653,641.358765 
	C336.681976,641.548401 336.913300,641.738037 337.058380,641.945801 
	C337.058380,641.945801 337.082092,641.860901 337.092651,642.660278 
	C337.726776,646.033752 338.897339,649.404968 338.911774,652.781128 
	C339.051361,685.416626 338.939819,718.053284 339.103851,750.688538 
	C339.117218,753.343994 340.634705,755.991821 341.543213,758.705688 
	C341.543213,758.705688 341.641571,758.753784 341.283447,759.152893 
	C341.521606,759.432983 341.759766,759.713135 342.463531,760.487671 
	C347.936859,767.785706 354.318787,768.892151 362.806305,763.606384 
	C373.067474,757.216003 383.185364,750.594910 393.342010,744.037659 
	C408.080566,734.522217 422.785004,724.953979 437.532867,715.453064 
	C442.200562,712.445984 447.041962,709.997986 452.886902,711.935486 
	C454.737091,712.548828 456.631012,713.039124 458.521851,713.519043 
	C461.687378,714.322571 464.866516,715.072632 468.474426,716.489380 
	C471.990265,717.272705 475.474701,718.481201 479.029022,718.743958 
	C484.987244,719.184570 490.989960,719.022583 497.653412,718.980408 
	C498.108582,719.036865 498.563782,719.093323 499.214050,719.921570 
	C499.735046,720.260315 500.252686,720.888000 500.777527,720.894104 
	C507.692169,720.974731 514.608948,721.029114 521.521790,720.902405 
	C522.350647,720.887207 523.159180,719.769714 524.728394,719.020325 
	C525.490723,719.036804 526.252991,719.053284 527.578674,719.642273 
	C533.717834,719.013367 539.860046,718.410889 545.988708,717.692627 
	C546.373291,717.647522 546.651733,716.697327 547.783142,715.987122 
	C557.865723,713.368286 567.948364,710.749390 578.508911,708.639282 
	C583.992676,706.384277 589.476501,704.129272 594.963867,701.955811 
	C594.963867,701.955811 594.886230,701.930969 595.612976,701.970276 
	C596.732056,701.278870 597.851135,700.587463 598.973328,699.974182 
	C598.973328,699.974182 598.901245,699.943970 599.637207,699.967712 
	C600.338318,699.494141 601.039368,699.020569 601.876648,698.690247 
	C601.876648,698.690247 601.694946,698.612610 602.389160,698.815918 
	C602.785278,698.373230 603.181396,697.930542 603.664795,697.507263 
	C603.664795,697.507263 603.740784,697.554382 604.446472,697.806030 
	C605.458618,697.031311 606.470703,696.256653 607.612000,695.486328 
	C607.612000,695.486328 607.692261,695.587585 608.248169,695.668030 
	C608.485962,695.399841 608.723755,695.131592 609.309875,694.283875 
	C617.622742,689.132141 626.149475,684.292786 634.210632,678.773438 
	C665.384949,657.428528 690.492676,630.768372 705.270874,595.460632 
	C709.722168,584.825867 714.042786,574.039612 717.154785,562.966309 
	C720.833008,549.878174 723.137024,536.403931 726.136353,523.708557 
	C726.411682,524.030762 726.687073,524.352966 726.962402,524.675171 
	C726.972107,524.509155 726.982178,524.343079 726.991577,524.177063 
	C727.326660,518.231384 727.938599,512.286377 727.952148,506.339996 
	C728.043030,466.580078 728.008850,426.819855 728.010376,387.059753 
	C728.011841,348.796906 728.056824,310.533813 727.888062,272.271698 
	C727.877441,269.860168 726.178772,267.456146 725.006348,264.647552 
	C725.006348,264.647552 724.951538,264.173187 724.937378,263.487213 
	C724.470703,263.133514 724.004089,262.779816 723.532837,262.180237 
	C723.532837,262.180237 723.590393,262.419373 723.623047,261.648346 
	C722.554199,261.119965 721.485291,260.591583 719.775940,260.035889 
	C718.448547,259.405121 717.121216,258.774353 716.124390,257.611053 
	C714.569031,257.407288 713.013672,257.026154 711.458252,257.025360 
	C649.180542,256.994537 586.902710,256.967560 524.625122,257.039062 
	C517.452087,257.047302 510.279785,257.628662 503.107147,257.944305 
	C503.106354,258.191010 503.105560,258.437744 503.104736,258.684479 
	C504.370117,258.778229 505.635468,258.871948 506.232361,259.291199 
	C504.471893,259.477142 502.711426,259.663086 500.426300,259.341583 
	C498.852692,259.234772 497.279114,259.127930 495.705505,259.021088 
	C495.845428,259.371216 495.985352,259.721375 495.611938,260.521729 
	C494.722687,260.625427 493.833466,260.729126 492.381653,260.311798 
	C487.594849,260.886383 482.808075,261.460999 477.554504,262.253662 
	C477.386536,262.546783 477.218536,262.839874 477.035553,263.050537 
	C477.035553,263.050537 477.116638,263.071777 476.256958,263.019409 
	C471.913971,263.941803 467.488190,264.588196 463.249817,265.859344 
	C458.419006,267.308228 453.755310,269.314209 449.019012,271.006958 
	C449.019012,271.006958 449.080719,271.042297 448.272095,271.023895 
	C444.867737,272.493073 441.463409,273.962250 437.470337,275.941498 
	C412.146942,285.869751 389.571411,300.284241 368.582031,317.457886 
	C368.074280,318.036469 367.566528,318.615021 366.941467,319.625977 
	C366.768585,319.905121 366.518005,320.047333 365.666351,320.246735 
	C365.459473,320.546387 365.252594,320.846039 365.046326,321.054504 
	C365.046326,321.054504 365.134613,321.077393 364.433960,321.108398 
	C363.975281,321.801849 363.516602,322.495300 362.942688,323.627289 
	C362.767487,323.910522 362.513367,324.052948 361.496765,324.071594 
	C361.196899,324.541321 360.897064,325.011017 360.495026,325.471100 
	C360.495026,325.471100 360.428589,325.549255 359.827759,325.384583 
z" data-index="1"></path>
<path fill="#0A1A0B" opacity="1.000000" stroke="none" d="
M723.993408,255.562256 
	C709.467712,255.247635 694.755127,254.146118 680.038147,254.084763 
	C627.762207,253.866730 575.484802,253.999741 523.207947,254.007217 
	C500.858887,254.010422 479.126007,258.081482 457.665527,263.954956 
	C456.077942,264.389435 454.446442,264.663605 452.048981,264.959442 
	C451.010529,264.860962 450.758423,264.815338 450.506287,264.769684 
	C470.431976,257.955688 490.949158,253.379639 511.945099,253.134720 
	C578.463928,252.358795 644.991150,252.255386 711.515564,252.129059 
	C715.609863,252.121292 719.708130,254.163864 723.993408,255.562256 
z" data-index="2"></path>
<path fill="#0A1A0B" opacity="1.000000" stroke="none" d="
M732.936890,506.526184 
	C732.249512,505.176788 731.081177,503.363739 731.078552,501.549011 
	C730.983887,435.156982 730.997437,368.764771 730.996094,302.372589 
	C730.995850,292.555206 731.071594,282.736847 730.950012,272.920959 
	C730.911316,269.799805 730.346863,266.685181 730.065186,263.119202 
	C731.068726,267.238739 732.856323,271.804565 732.868103,276.374939 
	C733.049805,346.778564 733.000732,417.182831 733.004639,487.586914 
	C733.005005,493.745209 733.001282,499.903503 732.936890,506.526184 
z" data-index="3"></path>
<path fill="#0C140E" opacity="1.000000" stroke="none" d="
M442.708801,719.304199 
	C443.955017,715.410645 447.589111,715.689392 450.690521,716.202209 
	C462.738800,718.194153 474.649200,721.490479 486.761230,722.502930 
	C500.736420,723.671265 514.889526,723.445740 528.930725,722.912903 
	C548.638306,722.165100 567.415222,716.591309 585.912842,710.119873 
	C590.435364,708.537659 594.880066,706.732727 599.752075,705.060730 
	C591.047485,708.741089 582.110962,712.873108 572.824524,715.948364 
	C547.341919,724.387024 521.006042,726.975159 494.378357,724.841431 
	C480.871429,723.759033 467.543213,720.565063 454.085175,718.674866 
	C450.513580,718.173279 446.760590,718.963562 442.708801,719.304199 
z" data-index="4"></path>
<path fill="#04050A" opacity="1.000000" stroke="none" d="
M334.757294,648.556274 
	C335.108246,649.901672 335.939880,651.699158 335.944641,653.498840 
	C336.024231,683.730103 335.890808,713.962402 336.088593,744.192566 
	C336.130310,750.572632 337.301270,756.945374 337.934296,763.732300 
	C336.927307,760.419250 335.105255,756.701111 335.079224,752.970459 
	C334.854645,720.816040 334.956299,688.659363 334.952209,656.503357 
	C334.951874,654.005371 334.887695,651.507324 334.757294,648.556274 
z" data-index="5"></path>
<path fill="#04050A" opacity="1.000000" stroke="none" d="
M288.481140,439.118469 
	C288.215851,443.623962 287.811005,448.373993 286.984192,453.049408 
	C283.583191,472.281647 282.506714,491.661011 282.978333,511.628479 
	C282.638428,511.431519 282.050873,510.766876 282.033234,510.087402 
	C281.448273,487.602905 282.120453,465.220551 287.653687,443.245972 
	C287.972717,441.979095 287.989929,440.636200 288.481140,439.118469 
z" data-index="6"></path>
<path fill="#0C140E" opacity="1.000000" stroke="none" d="
M711.408997,595.988281 
	C712.353394,592.403809 713.687195,588.688171 714.868469,584.924622 
	C718.787720,572.438171 722.652161,559.934570 726.862915,547.241211 
	C723.360840,560.287170 719.611328,573.552795 715.649109,586.754639 
	C714.707764,589.891174 713.054382,592.813965 711.408997,595.988281 
z" data-index="7"></path>
<path fill="#182616" opacity="1.000000" stroke="none" d="
M283.122253,525.429932 
	C283.984070,527.459900 285.027893,529.868164 285.599213,532.383667 
	C287.753143,541.866882 289.781799,551.379089 291.780670,560.896545 
	C292.084015,562.340759 291.981537,563.870178 292.075623,565.987061 
	C292.084534,566.613953 292.000946,566.988342 292.000916,566.988342 
	C289.029724,553.278015 286.058533,539.567749 283.122253,525.429932 
z" data-index="8"></path>
<path fill="#0C140E" opacity="1.000000" stroke="none" d="
M291.991577,567.380371 
	C292.000946,566.988342 292.084534,566.613953 292.118896,566.427795 
	C296.090057,576.274658 300.026886,586.307678 303.934570,596.744263 
	C299.931061,587.356018 295.956635,577.564209 291.991577,567.380371 
z" data-index="9"></path>
<path fill="#0C140E" opacity="1.000000" stroke="none" d="
M298.240448,408.915344 
	C297.036926,414.460938 295.714722,420.320190 294.191376,426.126740 
	C293.530182,428.647003 292.454987,431.058685 291.074585,433.763336 
	C290.581299,434.006989 290.141541,434.017059 290.141541,434.017059 
	C292.774414,425.747253 295.407288,417.477448 298.240448,408.915344 
z" data-index="10"></path>
<path fill="#0C140E" opacity="1.000000" stroke="none" d="
M730.595154,530.297729 
	C730.844421,524.017578 731.473389,517.598572 732.491577,511.094788 
	C732.245544,517.393005 731.610168,523.776001 730.595154,530.297729 
z" data-index="11"></path>
<path fill="#0C140E" opacity="1.000000" stroke="none" d="
M450.140076,264.825653 
	C450.758423,264.815338 451.010529,264.860962 451.643616,264.958801 
	C446.492889,266.947235 440.961090,268.883423 435.025574,270.678162 
	C439.672546,268.651672 444.723206,266.766632 450.140076,264.825653 
z" data-index="12"></path>
<path fill="#0C140E" opacity="1.000000" stroke="none" d="
M422.555298,275.882446 
	C418.504303,278.199829 414.085022,280.574188 409.280090,282.944244 
	C413.325287,280.606445 417.756165,278.272949 422.555298,275.882446 
z" data-index="13"></path>
<path fill="#0C140E" opacity="1.000000" stroke="none" d="
M698.331116,621.893494 
	C699.512024,619.095337 700.973206,616.100525 702.792603,613.097473 
	C701.637573,615.958435 700.124451,618.827637 698.331116,621.893494 
z" data-index="14"></path>
<path fill="#0C140E" opacity="1.000000" stroke="none" d="
M705.470276,609.048340 
	C706.403137,606.319580 707.639832,603.416931 709.224731,600.590210 
	C708.306641,603.402222 707.040405,606.138367 705.470276,609.048340 
z" data-index="15"></path>
<path fill="#0C140E" opacity="1.000000" stroke="none" d="
M727.424561,546.975098 
	C727.570068,543.915344 728.048096,540.687256 728.857666,537.250122 
	C728.711792,540.296265 728.234436,543.551514 727.424561,546.975098 
z" data-index="16"></path>
<path fill="#0C140E" opacity="1.000000" stroke="none" d="
M407.146271,283.640839 
	C405.404572,284.907959 403.367767,286.339508 400.957825,287.658752 
	C402.673492,286.299377 404.762329,285.052307 407.146271,283.640839 
z" data-index="17"></path>
<path fill="#0C140E" opacity="1.000000" stroke="none" d="
M434.279419,270.617859 
	C432.536957,271.592041 430.458221,272.684631 428.001953,273.607849 
	C429.730652,272.537689 431.836914,271.636932 434.279419,270.617859 
z" data-index="18"></path>
<path fill="#0C140E" opacity="1.000000" stroke="none" d="
M304.863953,599.445679 
	C305.855133,600.881165 306.910706,602.667419 307.947754,604.834473 
	C306.928955,603.408997 305.928650,601.602783 304.863953,599.445679 
z" data-index="19"></path>
<path fill="#0C140E" opacity="1.000000" stroke="none" d="
M694.972046,627.162659 
	C695.638855,625.631592 696.500488,623.862793 697.720520,622.067627 
	C697.108215,623.669189 696.137573,625.296997 694.972046,627.162659 
z" data-index="20"></path>
<path fill="#0C140E" opacity="1.000000" stroke="none" d="
M310.642944,610.992493 
	C311.618408,612.280823 312.758057,613.851807 313.878723,615.801636 
	C312.842163,614.545410 311.824615,612.910217 310.642944,610.992493 
z" data-index="21"></path>
<path fill="#0C140E" opacity="1.000000" stroke="none" d="
M729.419556,536.977600 
	C729.183472,535.407043 729.275574,533.671326 729.759033,531.520203 
	C730.016174,533.007385 729.881958,534.909851 729.419556,536.977600 
z" data-index="22"></path>
<path fill="#0C140E" opacity="1.000000" stroke="none" d="
M300.147522,403.997070 
	C299.926117,405.313690 299.563232,406.922089 298.820557,408.536133 
	C298.962494,407.124176 299.484283,405.706512 300.147522,403.997070 
z" data-index="23"></path>
<path fill="#0C140E" opacity="1.000000" stroke="none" d="
M427.207855,273.593323 
	C426.213928,274.288452 424.910400,275.118927 423.221863,275.921295 
	C424.190674,275.171722 425.544464,274.450226 427.207855,273.593323 
z" data-index="24"></path>
<path fill="#0C140E" opacity="1.000000" stroke="none" d="
M430.365784,727.051880 
	C431.279846,726.175537 432.513794,725.236511 434.081543,724.454712 
	C433.172119,725.404358 431.928894,726.196777 430.365784,727.051880 
z" data-index="25"></path>
<path fill="#0C140E" opacity="1.000000" stroke="none" d="
M394.658203,750.339355 
	C395.344208,749.646118 396.334229,748.841309 397.699188,748.037964 
	C397.036804,748.768860 395.999512,749.498291 394.658203,750.339355 
z" data-index="26"></path>
<path fill="#0C140E" opacity="1.000000" stroke="none" d="
M703.395203,612.983398 
	C703.583252,611.867981 704.067627,610.584778 704.909180,609.212769 
	C704.741394,610.354492 704.216431,611.584961 703.395203,612.983398 
z" data-index="27"></path>
<path fill="#0C140E" opacity="1.000000" stroke="none" d="
M386.928833,755.356445 
	C387.570648,754.691345 388.474060,753.865356 389.761475,753.066162 
	C389.160431,753.793762 388.175446,754.494690 386.928833,755.356445 
z" data-index="28"></path>
<path fill="#0C140E" opacity="1.000000" stroke="none" d="
M400.981262,746.334351 
	C401.610626,745.680115 402.494751,744.858093 403.762512,744.065063 
	C403.176086,744.784851 402.206024,745.475708 400.981262,746.334351 
z" data-index="29"></path>
<path fill="#0C140E" opacity="1.000000" stroke="none" d="
M685.395264,640.012573 
	C685.940125,638.865540 686.780396,637.579468 687.969482,636.238464 
	C687.442383,637.413574 686.566528,638.643494 685.395264,640.012573 
z" data-index="30"></path>
<path fill="#0C140E" opacity="1.000000" stroke="none" d="
M426.938232,729.358948 
	C427.568298,728.691223 428.458984,727.864868 429.730957,727.052002 
	C429.141144,727.777100 428.170013,728.488647 426.938232,729.358948 
z" data-index="31"></path>
<path fill="#0C140E" opacity="1.000000" stroke="none" d="
M602.410400,704.096497 
	C603.248779,703.521973 604.413513,702.896851 605.945923,702.484497 
	C605.121277,703.146851 603.929016,703.596375 602.410400,704.096497 
z" data-index="32"></path>
<path fill="#0C140E" opacity="1.000000" stroke="none" d="
M315.634583,619.873169 
	C316.303802,620.539185 317.130493,621.476685 317.913788,622.799072 
	C317.177643,622.170898 316.484863,621.157776 315.634583,619.873169 
z" data-index="33"></path>
<path fill="#0C140E" opacity="1.000000" stroke="none" d="
M692.346313,630.978882 
	C692.653259,629.913879 693.233521,628.707520 694.165649,627.617920 
	C693.884888,628.769043 693.252197,629.803284 692.346313,630.978882 
z" data-index="34"></path>
<path fill="#0C140E" opacity="1.000000" stroke="none" d="
M423.925720,731.361938 
	C424.373199,730.786987 425.052155,730.067383 426.072632,729.530518 
	C425.661804,730.214600 424.909485,730.715881 423.925720,731.361938 
z" data-index="35"></path>
<path fill="#0C140E" opacity="1.000000" stroke="none" d="
M383.791077,757.390503 
	C384.267212,756.797485 384.994965,756.069275 386.064606,755.523193 
	C385.618561,756.221985 384.830597,756.738586 383.791077,757.390503 
z" data-index="36"></path>
<path fill="#0C140E" opacity="1.000000" stroke="none" d="
M420.767395,733.391113 
	C421.248810,732.797852 421.984833,732.073486 423.058655,731.536316 
	C422.604950,732.235657 421.813446,732.747803 420.767395,733.391113 
z" data-index="37"></path>
<path fill="#0C140E" opacity="1.000000" stroke="none" d="
M417.851654,735.373901 
	C418.305786,734.772095 419.009216,734.024902 420.072876,733.422729 
	C419.655701,734.121277 418.878326,734.674866 417.851654,735.373901 
z" data-index="38"></path>
<path fill="#0C140E" opacity="1.000000" stroke="none" d="
M410.387146,740.058838 
	C410.858154,739.437500 411.638275,738.739868 412.793823,738.078430 
	C412.344940,738.737305 411.520599,739.359924 410.387146,740.058838 
z" data-index="39"></path>
<path fill="#0C140E" opacity="1.000000" stroke="none" d="
M400.309082,287.638794 
	C399.868195,288.208923 399.145386,288.890503 398.229797,289.334534 
	C398.700409,288.648071 399.363800,288.199158 400.309082,287.638794 
z" data-index="40"></path>
<path fill="#0C140E" opacity="1.000000" stroke="none" d="
M434.806458,724.389038 
	C435.284607,723.804688 436.009796,723.086304 437.069916,722.562988 
	C436.621063,723.257019 435.837250,723.756042 434.806458,724.389038 
z" data-index="41"></path>
<path fill="#0C140E" opacity="1.000000" stroke="none" d="
M683.706909,642.252502 
	C683.786987,641.660522 684.102112,640.892761 684.785828,640.109802 
	C684.750305,640.755249 684.346130,641.415955 683.706909,642.252502 
z" data-index="42"></path>
<path fill="#0C140E" opacity="1.000000" stroke="none" d="
M404.343475,744.069031 
	C404.641174,743.572083 405.195862,742.999939 406.058044,742.629822 
	C405.777191,743.219238 405.188812,743.606567 404.343475,744.069031 
z" data-index="43"></path>
<path fill="#0C140E" opacity="1.000000" stroke="none" d="
M398.303619,748.010864 
	C398.611389,747.504944 399.189911,746.944214 400.085388,746.567017 
	C399.793030,747.152344 399.183716,747.554199 398.303619,748.010864 
z" data-index="44"></path>
<path fill="#0C140E" opacity="1.000000" stroke="none" d="
M677.321411,649.751160 
	C677.595154,648.946045 678.173950,648.127136 679.080322,647.310425 
	C678.814026,648.120911 678.220215,648.929138 677.321411,649.751160 
z" data-index="45"></path>
<path fill="#0C140E" opacity="1.000000" stroke="none" d="
M690.615845,633.221680 
	C690.705627,632.622986 691.048462,631.865601 691.754089,631.086548 
	C691.700928,631.730957 691.284973,632.396973 690.615845,633.221680 
z" data-index="46"></path>
<path fill="#0A1A0B" opacity="1.000000" stroke="none" d="
M725.770020,256.870148 
	C725.346130,256.851288 724.713867,256.637482 724.100342,256.120087 
	C724.599976,256.102753 725.080811,256.388977 725.770020,256.870148 
z" data-index="47"></path>
<path fill="#0C140E" opacity="1.000000" stroke="none" d="
M301.682739,401.005127 
	C301.684174,401.738190 301.407806,402.593140 300.782043,403.382996 
	C300.756775,402.587616 301.080872,401.857300 301.682739,401.005127 
z" data-index="48"></path>
<path fill="#0C140E" opacity="1.000000" stroke="none" d="
M309.140167,608.276550 
	C309.647888,608.588440 310.145599,609.168701 310.452820,610.041626 
	C309.884918,609.737793 309.507507,609.141357 309.140167,608.276550 
z" data-index="49"></path>
<path fill="#0C140E" opacity="1.000000" stroke="none" d="
M608.930054,701.381226 
	C609.145569,701.026489 609.596252,700.532654 610.380066,700.028687 
	C610.197205,700.426392 609.681152,700.834290 608.930054,701.381226 
z" data-index="50"></path>
<path fill="#0C140E" opacity="1.000000" stroke="none" d="
M600.375244,705.105225 
	C600.537292,704.803894 601.013550,704.435608 601.815308,704.078369 
	C601.656982,704.405701 601.173157,704.722046 600.375244,705.105225 
z" data-index="51"></path>
<path fill="#0C140E" opacity="1.000000" stroke="none" d="
M689.368042,635.018311 
	C689.326599,634.562683 689.556519,633.976379 690.119629,633.339355 
	C690.181580,633.821655 689.910461,634.354614 689.368042,635.018311 
z" data-index="52"></path>
<path fill="#0C140E" opacity="1.000000" stroke="none" d="
M439.489197,721.263184 
	C439.626465,720.933044 440.054443,720.517517 440.814575,720.096191 
	C440.691071,720.452881 440.235474,720.815308 439.489197,721.263184 
z" data-index="53"></path>
<path fill="#0C140E" opacity="1.000000" stroke="none" d="
M437.951843,722.388672 
	C438.021637,722.069519 438.313843,721.615479 438.949280,721.207275 
	C438.919769,721.586670 438.546997,721.920288 437.951843,722.388672 
z" data-index="54"></path>
<path fill="#0C140E" opacity="1.000000" stroke="none" d="
M606.917114,702.419922 
	C607.055542,702.141479 607.395386,701.751526 608.044678,701.541504 
	C607.942261,701.917053 607.530396,702.112671 606.917114,702.419922 
z" data-index="55"></path>
<path fill="#04050A" opacity="1.000000" stroke="none" d="
M332.795959,645.413086 
	C333.084076,645.559875 333.469269,645.982666 333.921600,646.714111 
	C333.623505,646.578247 333.258270,646.133667 332.795959,645.413086 
z" data-index="56"></path>
<path fill="#0C140E" opacity="1.000000" stroke="none" d="
M380.616455,759.364380 
	C380.720001,759.010681 381.104675,758.554626 381.829620,758.105835 
	C381.745789,758.496155 381.321655,758.879028 380.616455,759.364380 
z" data-index="57"></path>
<path fill="#0C140E" opacity="1.000000" stroke="none" d="
M710.402710,598.026917 
	C710.270508,597.556946 710.429932,596.951477 710.881714,596.200439 
	C711.014160,596.667053 710.854248,597.279175 710.402710,598.026917 
z" data-index="58"></path>
<path fill="#0C140E" opacity="1.000000" stroke="none" d="
M303.891296,597.373413 
	C304.195892,597.549622 304.551453,598.037903 304.890259,598.854431 
	C304.563080,598.683594 304.252716,598.184509 303.891296,597.373413 
z" data-index="59"></path>
<path fill="#0C140E" opacity="1.000000" stroke="none" d="
M709.857910,600.045776 
	C709.678101,599.668518 709.633423,599.034485 709.896606,598.233398 
	C710.134094,598.640503 710.063599,599.214783 709.857910,600.045776 
z" data-index="60"></path>
<path fill="#0C140E" opacity="1.000000" stroke="none" d="
M314.567993,617.885010 
	C314.859985,618.024780 315.266907,618.379089 315.511108,619.057251 
	C315.126526,618.953857 314.904724,618.526672 314.567993,617.885010 
z" data-index="61"></path>
<path fill="#0C140E" opacity="1.000000" stroke="none" d="
M391.373840,752.105103 
	C391.542542,751.806274 392.023560,751.438904 392.831848,751.088745 
	C392.668182,751.416199 392.177185,751.726379 391.373840,752.105103 
z" data-index="62"></path>
<path fill="#0C140E" opacity="1.000000" stroke="none" d="
M317.867859,623.369263 
	C318.161316,623.451355 318.526123,623.799622 318.935181,624.420288 
	C318.632690,624.340271 318.285950,623.987854 317.867859,623.369263 
z" data-index="63"></path>
<path fill="#0C140E" opacity="1.000000" stroke="none" d="
M407.030762,742.333801 
	C407.091217,742.035217 407.356354,741.598816 407.957764,741.206238 
	C407.941132,741.565369 407.588257,741.880676 407.030762,742.333801 
z" data-index="64"></path>
<path fill="#0C140E" opacity="1.000000" stroke="none" d="
M408.486938,741.266235 
	C408.622589,740.933594 409.050507,740.516541 409.810211,740.093262 
	C409.687744,740.451904 409.233490,740.816833 408.486938,741.266235 
z" data-index="65"></path>
<path fill="#0C140E" opacity="1.000000" stroke="none" d="
M682.292114,643.941772 
	C682.307739,643.522217 682.573181,642.965271 683.168091,642.402222 
	C683.179016,642.865601 682.860474,643.335022 682.292114,643.941772 
z" data-index="66"></path>
<path fill="#0C140E" opacity="1.000000" stroke="none" d="
M414.564209,737.332275 
	C414.686523,736.983459 415.098175,736.543335 415.849731,736.118958 
	C415.744263,736.503479 415.298950,736.872253 414.564209,737.332275 
z" data-index="67"></path>
<path fill="#04050A" opacity="1.000000" stroke="none" d="
M337.919373,764.306519 
	C338.075165,764.268555 338.291595,764.466675 338.389740,764.799316 
	C338.271454,764.933777 337.980072,764.542725 337.919373,764.306519 
z" data-index="68"></path>
<path fill="#0C140E" opacity="1.000000" stroke="none" d="
M379.078003,760.265991 
	C379.082367,760.058960 379.404602,759.722412 380.076569,759.350769 
	C380.082825,759.589294 379.739380,759.862854 379.078003,760.265991 
z" data-index="69"></path>
<path fill="#0C140E" opacity="1.000000" stroke="none" d="
M382.332764,758.122803 
	C382.348022,757.928284 382.609131,757.668274 383.155396,757.484802 
	C383.153229,757.726624 382.865906,757.891968 382.332764,758.122803 
z" data-index="70"></path>
<path fill="#0C140E" opacity="1.000000" stroke="none" d="
M390.331757,753.066528 
	C390.263550,752.853088 390.456207,752.554749 390.906555,752.163147 
	C390.973724,752.373779 390.783173,752.677734 390.331757,753.066528 
z" data-index="71"></path>
<path fill="#0C140E" opacity="1.000000" stroke="none" d="
M393.340027,751.100403 
	C393.328918,750.901306 393.576721,750.624573 394.117706,750.359009 
	C394.140228,750.587708 393.869568,750.805176 393.340027,751.100403 
z" data-index="72"></path>
<path fill="#04050A" opacity="1.000000" stroke="none" d="
M331.066833,643.274048 
	C331.280975,643.233948 331.521881,643.460144 331.851654,643.924683 
	C331.658203,643.955505 331.375946,643.747864 331.066833,643.274048 
z" data-index="73"></path>
<path fill="#0C140E" opacity="1.000000" stroke="none" d="
M413.353424,738.106934 
	C413.326508,737.898621 413.563782,737.613464 414.092773,737.313843 
	C414.128845,737.543030 413.873230,737.786560 413.353424,738.106934 
z" data-index="74"></path>
<path fill="#0C140E" opacity="1.000000" stroke="none" d="
M416.345734,736.148743 
	C416.363037,735.950989 416.618164,735.692871 417.149902,735.528809 
	C417.208588,735.892151 416.927612,736.047363 416.345734,736.148743 
z" data-index="75"></path>
<path fill="#04050A" opacity="1.000000" stroke="none" d="
M289.611633,435.686829 
	C289.765839,435.888855 289.668182,436.253143 289.347351,436.793701 
	C289.202698,436.596313 289.281250,436.222687 289.611633,435.686829 
z" data-index="76"></path>
<path fill="#04050A" opacity="1.000000" stroke="none" d="
M290.062561,434.251617 
	C290.141541,434.017059 290.581299,434.006989 290.801453,434.007812 
	C290.926575,434.333557 290.744354,434.598480 290.247314,434.891602 
	C290.019714,434.979828 289.983612,434.486176 290.062561,434.251617 
z" data-index="77"></path>
<path fill="#0C140E" opacity="1.000000" stroke="none" d="
M313.852783,616.342041 
	C314.045685,616.368530 314.290436,616.620300 314.416443,617.130127 
	C314.063110,617.164185 313.932129,616.890503 313.852783,616.342041 
z" data-index="78"></path>
<path fill="#0C140E" opacity="1.000000" stroke="none" d="
M688.448303,636.178223 
	C688.346313,635.961121 688.493835,635.625305 688.902527,635.179932 
	C689.008423,635.400146 688.853088,635.729919 688.448303,636.178223 
z" data-index="79"></path>
<path fill="#0C140E" opacity="1.000000" stroke="none" d="
M441.333923,720.091919 
	C441.317566,719.878357 441.570221,719.608032 442.115143,719.341675 
	C442.139252,719.575500 441.871124,719.805298 441.333923,720.091919 
z" data-index="80"></path>
<path fill="#04050A" opacity="1.000000" stroke="none" d="
M331.933105,644.325928 
	C332.138184,644.283264 332.429352,644.506348 332.785645,645.007568 
	C332.573608,645.054382 332.296417,644.823120 331.933105,644.325928 
z" data-index="81"></path>
<path fill="#0C140E" opacity="1.000000" stroke="none" d="
M681.299194,645.048828 
	C681.226318,644.849304 681.409180,644.550781 681.834473,644.140381 
	C681.902893,644.335632 681.728943,644.642761 681.299194,645.048828 
z" data-index="82"></path>
<path fill="#0C140E" opacity="1.000000" stroke="none" d="
M679.556641,647.246399 
	C679.439148,647.032959 679.561218,646.672607 679.952332,646.188782 
	C680.079651,646.410034 679.937927,646.754761 679.556641,647.246399 
z" data-index="83"></path>
<path fill="#0C140E" opacity="1.000000" stroke="none" d="
M408.708374,282.927917 
	C408.682770,283.133789 408.406097,283.363708 407.855774,283.500977 
	C407.873901,283.256195 408.165619,283.104095 408.708374,282.927917 
z" data-index="84"></path>
<path fill="#0A1A0B" opacity="1.000000" stroke="none" d="
M729.211914,260.664215 
	C729.043579,260.710205 728.794800,260.517090 728.674744,260.182892 
	C728.912781,260.169586 729.022156,260.297333 729.211914,260.664215 
z" data-index="85"></path>
<path fill="#D7FF3F" opacity="1.000000" stroke="none" d="
M336.670105,641.079041 
	C331.694733,633.486084 326.719360,625.893127 321.382202,617.812744 
	C320.449921,616.459167 319.879395,615.593018 319.308868,614.726807 
	C319.308868,614.726807 319.212769,614.939087 319.216370,614.527100 
	C318.508942,613.036621 317.797913,611.958191 317.086853,610.879700 
	C317.086884,610.879700 317.040405,610.958984 317.050415,610.727417 
	C317.070953,610.168762 316.944916,609.907532 316.682312,609.712280 
	C316.682312,609.712280 316.639618,609.520874 316.455963,609.176147 
	C315.875488,608.182739 315.478668,607.533997 315.081848,606.885254 
	C315.081818,606.885254 315.036316,606.962158 315.013641,606.599854 
	C312.777771,602.062317 310.564606,597.886963 308.351410,593.711670 
	C308.351410,593.711670 308.337036,593.959045 308.275330,593.484375 
	C306.502197,589.301880 304.790802,585.594116 303.079437,581.886353 
	C303.079437,581.886353 303.038635,581.963928 303.050354,581.587402 
	C302.079987,579.091492 301.097931,576.972107 300.115845,574.852783 
	C300.115845,574.852783 300.092865,574.943481 300.083679,574.539490 
	C297.531128,564.597778 294.783844,555.108398 292.509796,545.506897 
	C290.738403,538.027527 289.555908,530.408569 288.111694,522.851685 
	C288.111664,522.851685 288.055847,522.953125 288.035583,522.518799 
	C288.071930,519.047424 288.128540,516.010315 288.456787,512.660706 
	C288.824371,506.270538 289.051239,500.191132 288.972229,494.115753 
	C288.915527,489.751831 288.450226,485.393250 288.096680,480.604156 
	C288.334290,478.265930 288.663483,476.358978 288.946869,474.445221 
	C290.254120,465.615936 291.080872,456.683289 292.968445,447.980408 
	C295.228180,437.561584 298.390045,427.338470 301.161255,417.030579 
	C301.161255,417.030579 301.059479,417.034576 301.381104,416.898102 
	C302.292969,414.960602 302.883148,413.159576 303.473328,411.358582 
	C303.473358,411.358582 303.446686,411.293823 303.682800,411.046753 
	C304.300354,409.539795 304.681824,408.279877 305.063293,407.019928 
	C305.063263,407.019928 304.997803,407.018494 305.259338,406.838745 
	C306.158661,405.124207 306.796478,403.589417 307.434326,402.054657 
	C318.057037,378.590240 331.843201,357.167847 349.225464,337.406555 
	C349.781036,336.664062 349.993164,336.360016 350.205261,336.055969 
	C350.769348,335.588440 351.333405,335.120911 352.257690,334.265442 
	C353.114746,333.271057 353.611542,332.664581 354.108368,332.058136 
	C354.108368,332.058136 354.026093,332.028076 354.314026,331.937958 
	C355.228241,331.119904 355.854523,330.391998 356.480835,329.664062 
	C356.480804,329.664062 356.514923,329.531860 356.753113,329.387299 
	C357.251190,329.042694 357.401184,328.779846 357.441284,328.454163 
	C357.441284,328.454163 357.499176,328.445221 357.754608,328.334045 
	C358.488220,327.719025 358.966370,327.215179 359.444519,326.711334 
	C359.444519,326.711334 359.539978,326.567963 359.784424,326.424561 
	C360.295135,326.110046 360.428375,325.866089 360.428589,325.549255 
	C360.428589,325.549255 360.495026,325.471100 360.787323,325.357727 
	C361.446533,324.847778 361.813446,324.451172 362.180328,324.054565 
	C362.513367,324.052948 362.767487,323.910522 363.274109,323.276459 
	C364.115204,322.309570 364.624908,321.693481 365.134613,321.077393 
	C365.134613,321.077393 365.046326,321.054504 365.304413,320.999146 
	C365.771545,320.646759 365.980621,320.349670 366.189697,320.052612 
	C366.518005,320.047333 366.768585,319.905121 367.271149,319.304077 
	C368.053741,318.623047 368.506622,318.263855 368.959534,317.904694 
	C389.571411,300.284241 412.146942,285.869751 438.085022,275.581543 
	C442.160065,273.828522 445.620392,272.435425 449.080719,271.042297 
	C449.080719,271.042297 449.019012,271.006958 449.415771,271.012939 
	C458.913910,268.369843 468.015289,265.720795 477.116638,263.071777 
	C477.116638,263.071777 477.035553,263.050537 477.284790,263.037384 
	C477.534027,263.024231 478.020874,262.933929 478.306763,263.072021 
	C483.376495,262.417725 488.160339,261.625275 492.944214,260.832825 
	C493.833466,260.729126 494.722687,260.625427 496.271790,260.295258 
	C498.271423,259.995544 499.611206,259.922302 500.950958,259.849030 
	C502.711426,259.663086 504.471893,259.477142 507.032715,259.145203 
	C512.461670,258.727112 517.089294,258.237030 521.718933,258.218079 
	C552.983215,258.090118 584.247925,258.018311 615.512451,258.013336 
	C648.939575,258.007996 682.366699,258.096191 715.793823,258.143555 
	C717.121216,258.774353 718.448547,259.405121 720.303528,260.327576 
	C721.750854,261.219269 722.670654,261.819336 723.590393,262.419373 
	C723.590393,262.419373 723.532837,262.180237 723.587830,262.589050 
	C724.079041,263.389618 724.515320,263.781403 724.951538,264.173187 
	C724.951538,264.173187 725.006348,264.647552 725.228577,265.216187 
	C725.965393,268.673248 726.936401,271.562988 726.928101,274.449921 
	C726.691162,357.332458 726.356018,440.214783 726.036743,523.097107 
	C723.137024,536.403931 720.833008,549.878174 717.154785,562.966309 
	C714.042786,574.039612 709.722168,584.825867 705.270874,595.460632 
	C690.492676,630.768372 665.384949,657.428528 634.210632,678.773438 
	C626.149475,684.292786 617.622742,689.132141 608.877930,694.630493 
	C608.194702,695.180664 607.943481,695.384155 607.692261,695.587585 
	C607.692261,695.587585 607.612000,695.486328 607.265381,695.600037 
	C605.859436,696.327332 604.800110,696.940857 603.740784,697.554382 
	C603.740784,697.554382 603.664795,697.507263 603.358032,697.592773 
	C602.599182,697.989746 602.147034,698.301208 601.694946,698.612610 
	C601.694946,698.612610 601.876648,698.690247 601.490723,698.703247 
	C600.370300,699.125488 599.635742,699.534729 598.901245,699.943970 
	C598.901245,699.943970 598.973328,699.974182 598.636536,699.989624 
	C597.161926,700.646973 596.024048,701.288940 594.886230,701.930969 
	C594.886230,701.930969 594.963867,701.955811 594.584717,701.964355 
	C588.813965,704.025452 583.422485,706.077942 578.030945,708.130493 
	C567.948364,710.749390 557.865723,713.368286 547.047546,716.011169 
	C539.879761,717.046692 533.447510,718.058228 527.015320,719.069763 
	C526.252991,719.053284 525.490723,719.036804 523.890503,719.020752 
	C515.041443,719.064026 507.030182,719.106873 499.018951,719.149658 
	C498.563782,719.093323 498.108582,719.036865 496.892700,718.983032 
	C486.767975,717.938843 477.403961,716.891968 468.039917,715.845093 
	C464.866516,715.072632 461.687378,714.322571 458.521851,713.519043 
	C456.631012,713.039124 454.737091,712.548828 452.886902,711.935486 
	C447.041962,709.997986 442.200562,712.445984 437.532867,715.453064 
	C422.785004,724.953979 408.080566,734.522217 393.342010,744.037659 
	C383.185364,750.594910 373.067474,757.216003 362.806305,763.606384 
	C354.318787,768.892151 347.936859,767.785706 342.235413,760.014587 
	C342.013794,759.219177 341.891907,758.956604 341.641571,758.753784 
	C341.641571,758.753784 341.543213,758.705688 341.392639,758.281799 
	C341.210449,756.227173 341.178802,754.596436 341.426025,752.660522 
	C341.800323,751.703247 341.979034,751.051208 341.979340,750.398987 
	C341.994110,718.512817 342.003540,686.626648 341.957153,654.740540 
	C341.955353,653.502380 341.401642,652.265076 341.000275,650.643921 
	C339.624329,647.460571 338.353210,644.660767 337.082092,641.860901 
	C337.082092,641.860901 337.058380,641.945801 337.025330,641.700745 
	C336.992279,641.455688 336.670074,641.079041 336.670105,641.079041 
M398.846283,463.895050 
	C398.846283,463.895050 398.873993,463.708862 398.309601,463.893860 
	C398.130493,464.238403 397.951385,464.582947 397.927795,464.934174 
	C397.927795,464.934174 397.903809,464.780426 397.413635,464.992584 
	C397.322754,465.317047 397.231873,465.641541 396.965271,466.386383 
	C396.965271,466.386383 396.962341,466.841980 396.270264,467.383759 
	C396.185394,467.872986 396.026276,468.362244 396.026184,468.851471 
	C396.016937,520.936768 395.994659,573.022095 396.103271,625.107178 
	C396.108124,627.440857 397.306946,629.772034 397.969788,632.029480 
	C397.969788,632.029480 397.892273,632.026489 398.034882,632.584595 
	C398.299103,632.820984 398.563293,633.057373 398.749115,633.112305 
	C398.749115,633.112305 398.595093,633.236206 398.770538,633.883301 
	C399.758026,634.720154 400.745483,635.557007 401.848541,636.275208 
	C401.848541,636.275208 401.694763,636.213684 401.858887,636.775330 
	C402.230560,636.891907 402.602264,637.008423 402.968323,637.038086 
	C402.968323,637.038086 402.883820,637.059143 403.241516,637.669189 
	C404.741516,638.269409 406.241486,638.869568 407.838501,639.418762 
	C407.838501,639.418762 407.766235,639.336365 408.095459,639.873535 
	C408.725342,639.950134 409.355194,640.026733 409.976776,640.027222 
	C409.976776,640.027222 409.902832,640.047119 410.361542,640.670471 
	C421.918762,641.822998 433.469727,643.048889 445.041382,644.031494 
	C446.423523,644.148865 447.918121,642.941895 449.263519,642.417664 
	C449.263519,642.417664 449.373871,642.462219 449.783600,642.324707 
	C449.783600,642.324707 449.995178,641.945312 450.681213,641.657654 
	C451.394012,638.143188 452.700470,634.631714 452.717896,631.113831 
	C452.797943,614.971985 452.447784,598.828674 452.380524,582.685303 
	C452.225098,545.373108 452.203217,508.060120 451.906860,470.749176 
	C451.885895,468.110870 450.065552,465.486877 449.048492,462.944641 
	C449.048492,462.944641 449.138275,462.915039 448.725189,462.227356 
	C446.984772,461.808929 445.247253,461.042419 443.503479,461.027924 
	C431.077332,460.924774 418.648712,460.887482 406.224091,461.060211 
	C404.073029,461.090118 401.937256,462.215942 399.908051,462.859680 
	C399.908051,462.859680 399.880707,462.746765 399.329102,462.915955 
	C399.111023,463.216400 398.892944,463.516876 398.846283,463.895050 
M580.449463,358.057129 
	C580.254944,358.360748 580.060364,358.664398 579.956238,358.963196 
	C579.956238,358.963196 579.933411,358.875641 579.345642,359.227753 
	C579.054810,360.060486 578.763977,360.893219 578.607300,362.010437 
	C578.607300,362.010437 578.910645,361.927460 578.131226,362.332733 
	C578.084595,371.142761 577.990845,379.952820 577.999573,388.762787 
	C578.036743,426.504852 578.104065,464.246887 578.004944,502.735992 
	C578.055664,503.493713 578.106445,504.251404 578.018921,505.748199 
	C578.065552,506.495758 578.112122,507.243286 578.005432,508.918182 
	C577.953369,535.962463 577.901245,563.006775 577.297974,590.661682 
	C577.200745,599.377502 577.030762,608.093567 577.049316,616.809082 
	C577.055054,619.524963 577.570923,622.239685 578.000488,625.780457 
	C578.555115,628.235291 579.109680,630.690125 579.407471,633.368286 
	C579.407471,633.368286 579.502747,633.695007 579.771301,634.200562 
	C580.486572,634.847900 581.201782,635.495239 581.952881,636.053284 
	C581.952881,636.053284 581.862244,636.085571 582.274292,636.745361 
	C584.694397,637.071716 587.252625,638.071289 589.510803,637.608154 
	C599.374084,635.584900 609.150269,633.137268 619.660034,630.766357 
	C625.404968,628.050964 631.573792,625.847534 634.187134,618.204407 
	C634.412964,616.583618 634.838623,614.962402 634.835327,613.342102 
	C634.748230,570.558411 634.627869,527.774658 634.489563,484.991089 
	C634.360474,445.041107 634.253052,405.090820 633.943481,365.142151 
	C633.924194,362.648346 632.229248,360.167542 631.200195,357.704529 
	C631.200195,357.704529 631.227661,357.817505 630.744324,357.178619 
	C629.004822,356.783325 627.267761,356.058716 625.525330,356.045410 
	C612.702026,355.947327 599.877441,355.962860 587.053711,356.031433 
	C585.656616,356.038910 584.262573,356.610352 582.979736,356.916534 
	C582.979736,356.916534 582.955017,356.806610 582.314087,356.864319 
	C581.830322,357.218384 581.346619,357.572479 580.958923,357.951141 
	C580.958923,357.951141 580.963623,357.852142 580.449463,358.057129 
M489.858215,643.177795 
	C489.858215,643.177795 489.719788,643.204651 490.084686,643.875122 
	C492.370026,644.582336 494.646057,645.864136 496.942230,645.901245 
	C509.486755,646.104004 522.037659,646.095764 534.582703,645.911072 
	C536.725342,645.879578 538.850342,644.643311 541.701660,643.764832 
	C542.478882,640.786865 543.907043,637.814148 543.931458,634.830017 
	C544.146790,608.539185 544.112488,582.246216 544.703430,555.341919 
	C544.798035,554.690247 544.975037,554.038635 544.975403,553.386902 
	C544.989380,525.848145 544.998779,498.309326 544.951294,470.770660 
	C544.949158,469.529877 544.414673,468.289978 543.970276,466.119202 
	C543.860840,451.341858 543.788879,436.564117 543.624634,421.787384 
	C543.552429,415.286743 540.713135,412.306915 534.234924,412.251007 
	C521.616638,412.142120 508.995361,412.163574 496.377747,412.322754 
	C492.461151,412.372162 488.729889,413.311035 487.143677,418.552429 
	C487.131104,419.041260 487.118530,419.530090 486.987732,420.947876 
	C487.011139,491.702789 487.012024,562.457764 487.136688,633.212524 
	C487.141907,636.186218 488.299896,639.157837 488.942719,642.046265 
	C488.942719,642.046265 488.855804,642.047363 489.014496,642.589661 
	C489.281250,642.830444 489.548035,643.071228 489.858215,643.177795 
z" data-index="86" style="opacity: 1;"></path>
<path fill="#04050A" opacity="1.000000" stroke="none" d="
M726.086548,523.402832 
	C726.356018,440.214783 726.691162,357.332458 726.928101,274.449921 
	C726.936401,271.562988 725.965393,268.673248 725.358154,265.416718 
	C726.178772,267.456146 727.877441,269.860168 727.888062,272.271698 
	C728.056824,310.533813 728.011841,348.796906 728.010376,387.059753 
	C728.008850,426.819855 728.043030,466.580078 727.952148,506.339996 
	C727.938599,512.286377 727.326660,518.231384 726.991577,524.177063 
	C726.982178,524.343079 726.972107,524.509155 726.962402,524.675171 
	C726.687073,524.352966 726.411682,524.030762 726.086548,523.402832 
z" data-index="87"></path>
<path fill="#0A1A0B" opacity="1.000000" stroke="none" d="
M341.147156,752.965698 
	C341.178802,754.596436 341.210449,756.227173 341.347717,758.250549 
	C340.634705,755.991821 339.117218,753.343994 339.103851,750.688538 
	C338.939819,718.053284 339.051361,685.416626 338.911774,652.781128 
	C338.897339,649.404968 337.726776,646.033752 337.087372,642.260620 
	C338.353210,644.660767 339.624329,647.460571 340.925964,651.105957 
	C341.020081,685.622864 341.083618,719.294312 341.147156,752.965698 
z" data-index="88"></path>
<path fill="#04050A" opacity="1.000000" stroke="none" d="
M715.959106,257.877319 
	C682.366699,258.096191 648.939575,258.007996 615.512451,258.013336 
	C584.247925,258.018311 552.983215,258.090118 521.718933,258.218079 
	C517.089294,258.237030 512.461670,258.727112 507.366943,258.982422 
	C505.635468,258.871948 504.370117,258.778229 503.104736,258.684479 
	C503.105560,258.437744 503.106354,258.191010 503.107147,257.944305 
	C510.279785,257.628662 517.452087,257.047302 524.625122,257.039062 
	C586.902710,256.967560 649.180542,256.994537 711.458252,257.025360 
	C713.013672,257.026154 714.569031,257.407288 715.959106,257.877319 
z" data-index="89"></path>
<path fill="#0C140E" opacity="1.000000" stroke="none" d="
M288.185150,512.973206 
	C288.128540,516.010315 288.071930,519.047424 288.090637,522.536743 
	C287.446320,518.362305 286.295380,513.755737 286.078735,509.105621 
	C284.901550,483.840820 288.305176,459.032104 294.391327,434.581055 
	C295.855133,428.700378 298.444153,423.099792 300.838470,417.200500 
	C298.390045,427.338470 295.228180,437.561584 292.968445,447.980408 
	C291.080872,456.683289 290.254120,465.615936 288.946869,474.445221 
	C288.663483,476.358978 288.334290,478.265930 288.024017,481.066467 
	C288.076263,492.295685 288.130707,502.634460 288.185150,512.973206 
z" data-index="90"></path>
<path fill="#182616" opacity="1.000000" stroke="none" d="
M288.074707,523.310669 
	C289.555908,530.408569 290.738403,538.027527 292.509796,545.506897 
	C294.783844,555.108398 297.531128,564.597778 300.130157,574.534180 
	C299.390961,573.542480 298.303406,572.241638 297.846558,570.747986 
	C293.149353,555.390869 288.483002,540.017334 288.074707,523.310669 
z" data-index="91"></path>
<path fill="#0C140E" opacity="1.000000" stroke="none" d="
M499.116516,719.535645 
	C507.030182,719.106873 515.041443,719.064026 523.514893,719.092163 
	C523.159180,719.769714 522.350647,720.887207 521.521790,720.902405 
	C514.608948,721.029114 507.692169,720.974731 500.777527,720.894104 
	C500.252686,720.888000 499.735046,720.260315 499.116516,719.535645 
z" data-index="92"></path>
<path fill="#0C140E" opacity="1.000000" stroke="none" d="
M468.257172,716.167236 
	C477.403961,716.891968 486.767975,717.938843 496.552979,719.049927 
	C490.989960,719.022583 484.987244,719.184570 479.029022,718.743958 
	C475.474701,718.481201 471.990265,717.272705 468.257172,716.167236 
z" data-index="93"></path>
<path fill="#0C140E" opacity="1.000000" stroke="none" d="
M476.686798,263.045593 
	C468.015289,265.720795 458.913910,268.369843 449.415771,271.048462 
	C453.755310,269.314209 458.419006,267.308228 463.249817,265.859344 
	C467.488190,264.588196 471.913971,263.941803 476.686798,263.045593 
z" data-index="94"></path>
<path fill="#0C140E" opacity="1.000000" stroke="none" d="
M527.296997,719.356018 
	C533.447510,718.058228 539.879761,717.046692 546.645752,716.101685 
	C546.651733,716.697327 546.373291,717.647522 545.988708,717.692627 
	C539.860046,718.410889 533.717834,719.013367 527.296997,719.356018 
z" data-index="95"></path>
<path fill="#0A1A0B" opacity="1.000000" stroke="none" d="
M578.269897,708.384888 
	C583.422485,706.077942 588.813965,704.025452 594.582886,701.923584 
	C589.476501,704.129272 583.992676,706.384277 578.269897,708.384888 
z" data-index="96"></path>
<path fill="#182616" opacity="1.000000" stroke="none" d="
M308.245605,594.100464 
	C310.564606,597.886963 312.777771,602.062317 315.057739,606.593018 
	C312.796295,602.795349 310.468048,598.642334 308.245605,594.100464 
z" data-index="97"></path>
<path fill="#04050A" opacity="1.000000" stroke="none" d="
M492.662933,260.572327 
	C488.160339,261.625275 483.376495,262.417725 478.302490,262.847473 
	C478.012360,262.484772 478.021271,262.035583 478.021271,262.035583 
	C482.808075,261.460999 487.594849,260.886383 492.662933,260.572327 
z" data-index="98"></path>
<path fill="#182616" opacity="1.000000" stroke="none" d="
M303.054993,582.288330 
	C304.790802,585.594116 306.502197,589.301880 308.306152,593.364380 
	C306.609344,590.042847 304.819946,586.366577 303.054993,582.288330 
z" data-index="99"></path>
<path fill="#0C140E" opacity="1.000000" stroke="none" d="
M448.676392,271.033081 
	C445.620392,272.435425 442.160065,273.828522 438.379395,275.326538 
	C441.463409,273.962250 444.867737,272.493073 448.676392,271.033081 
z" data-index="100"></path>
<path fill="#182616" opacity="1.000000" stroke="none" d="
M300.083191,575.238647 
	C301.097931,576.972107 302.079987,579.091492 303.093628,581.580566 
	C302.100311,579.841736 301.075409,577.733093 300.083191,575.238647 
z" data-index="101"></path>
<path fill="#0C140E" opacity="1.000000" stroke="none" d="
M303.094269,411.393250 
	C302.883148,413.159576 302.292969,414.960602 301.393768,416.947449 
	C301.628235,415.231476 302.171722,413.329681 303.094269,411.393250 
z" data-index="102"></path>
<path fill="#0C140E" opacity="1.000000" stroke="none" d="
M307.109070,402.126160 
	C306.796478,403.589417 306.158661,405.124207 305.278503,406.865265 
	C305.618744,405.446899 306.201294,403.822266 307.109070,402.126160 
z" data-index="103"></path>
<path fill="#04050A" opacity="1.000000" stroke="none" d="
M500.688629,259.595306 
	C499.611206,259.922302 498.271423,259.995544 496.528442,260.070129 
	C495.985352,259.721375 495.845428,259.371216 495.705505,259.021088 
	C497.279114,259.127930 498.852692,259.234772 500.688629,259.595306 
z" data-index="104"></path>
<path fill="#182616" opacity="1.000000" stroke="none" d="
M317.063171,611.251831 
	C317.797913,611.958191 318.508942,613.036621 319.290710,614.437378 
	C318.587433,613.714417 317.813446,612.669128 317.063171,611.251831 
z" data-index="105"></path>
<path fill="#0C140E" opacity="1.000000" stroke="none" d="
M304.729065,407.163269 
	C304.681824,408.279877 304.300354,409.539795 303.676819,411.012268 
	C303.754761,409.918732 304.074799,408.612671 304.729065,407.163269 
z" data-index="106"></path>
<path fill="#0A1A0B" opacity="1.000000" stroke="none" d="
M595.249634,701.950623 
	C596.024048,701.288940 597.161926,700.646973 598.635010,699.950562 
	C597.851135,700.587463 596.732056,701.278870 595.249634,701.950623 
z" data-index="107"></path>
<path fill="#0A1A0B" opacity="1.000000" stroke="none" d="
M604.093628,697.680176 
	C604.800110,696.940857 605.859436,696.327332 607.200806,695.597839 
	C606.470703,696.256653 605.458618,697.031311 604.093628,697.680176 
z" data-index="108"></path>
<path fill="#182616" opacity="1.000000" stroke="none" d="
M319.234131,615.074341 
	C319.879395,615.593018 320.449921,616.459167 321.091675,617.636475 
	C320.495056,617.105652 319.827209,616.263733 319.234131,615.074341 
z" data-index="109"></path>
<path fill="#0C140E" opacity="1.000000" stroke="none" d="
M368.770782,317.681274 
	C368.506622,318.263855 368.053741,318.623047 367.329773,319.087891 
	C367.566528,318.615021 368.074280,318.036469 368.770782,317.681274 
z" data-index="110"></path>
<path fill="#04050A" opacity="1.000000" stroke="none" d="
M723.606689,262.033875 
	C722.670654,261.819336 721.750854,261.219269 720.623779,260.341217 
	C721.485291,260.591583 722.554199,261.119965 723.606689,262.033875 
z" data-index="111"></path>
<path fill="#0C140E" opacity="1.000000" stroke="none" d="
M356.141785,329.534851 
	C355.854523,330.391998 355.228241,331.119904 354.331268,331.978210 
	C354.641296,331.207581 355.222015,330.306580 356.141785,329.534851 
z" data-index="112"></path>
<path fill="#0A1A0B" opacity="1.000000" stroke="none" d="
M599.269226,699.955811 
	C599.635742,699.534729 600.370300,699.125488 601.422607,698.631653 
	C601.039368,699.020569 600.338318,699.494141 599.269226,699.955811 
z" data-index="113"></path>
<path fill="#0C140E" opacity="1.000000" stroke="none" d="
M364.784302,321.092896 
	C364.624908,321.693481 364.115204,322.309570 363.331726,323.057190 
	C363.516602,322.495300 363.975281,321.801849 364.784302,321.092896 
z" data-index="114"></path>
<path fill="#0C140E" opacity="1.000000" stroke="none" d="
M353.764893,332.076172 
	C353.611542,332.664581 353.114746,333.271057 352.347961,334.000061 
	C352.525818,333.446472 352.973633,332.770325 353.764893,332.076172 
z" data-index="115"></path>
<path fill="#182616" opacity="1.000000" stroke="none" d="
M315.061035,607.254272 
	C315.478668,607.533997 315.875488,608.182739 316.411285,609.088867 
	C316.046936,608.771973 315.543579,608.197632 315.061035,607.254272 
z" data-index="116"></path>
<path fill="#0C140E" opacity="1.000000" stroke="none" d="
M359.118347,326.563721 
	C358.966370,327.215179 358.488220,327.719025 357.779633,328.349304 
	C357.963531,327.789215 358.377838,327.102692 359.118347,326.563721 
z" data-index="117"></path>
<path fill="#04050A" opacity="1.000000" stroke="none" d="
M724.944458,263.830200 
	C724.515320,263.781403 724.079041,263.389618 723.590088,262.712006 
	C724.004089,262.779816 724.470703,263.133514 724.944458,263.830200 
z" data-index="118"></path>
<path fill="#0A1A0B" opacity="1.000000" stroke="none" d="
M602.042053,698.714233 
	C602.147034,698.301208 602.599182,697.989746 603.314453,697.583130 
	C603.181396,697.930542 602.785278,698.373230 602.042053,698.714233 
z" data-index="119"></path>
<path fill="#0C140E" opacity="1.000000" stroke="none" d="
M361.838562,324.063080 
	C361.813446,324.451172 361.446533,324.847778 360.838409,325.362549 
	C360.897064,325.011017 361.196899,324.541321 361.838562,324.063080 
z" data-index="120"></path>
<path fill="#0A1A0B" opacity="1.000000" stroke="none" d="
M341.462524,758.953369 
	C341.891907,758.956604 342.013794,759.219177 342.002594,759.767334 
	C341.759766,759.713135 341.521606,759.432983 341.462524,758.953369 
z" data-index="121"></path>
<path fill="#0C140E" opacity="1.000000" stroke="none" d="
M349.934937,336.156464 
	C349.993164,336.360016 349.781036,336.664062 349.312439,337.086456 
	C349.258850,336.888855 349.461731,336.572906 349.934937,336.156464 
z" data-index="122"></path>
<path fill="#0C140E" opacity="1.000000" stroke="none" d="
M357.134064,328.409363 
	C357.401184,328.779846 357.251190,329.042694 356.779846,329.324493 
	C356.654541,329.059021 356.740692,328.711761 357.134064,328.409363 
z" data-index="123"></path>
<path fill="#182616" opacity="1.000000" stroke="none" d="
M316.553650,609.953491 
	C316.944916,609.907532 317.070953,610.168762 317.095612,610.719238 
	C316.895538,610.693237 316.660278,610.443970 316.553650,609.953491 
z" data-index="124"></path>
<path fill="#0C140E" opacity="1.000000" stroke="none" d="
M360.128174,325.466919 
	C360.428375,325.866089 360.295135,326.110046 359.829437,326.351135 
	C359.695953,326.075623 359.761841,325.730103 360.128174,325.466919 
z" data-index="125"></path>
<path fill="#0A1A0B" opacity="1.000000" stroke="none" d="
M336.560364,641.218872 
	C336.670074,641.079041 336.992279,641.455688 337.068451,641.691650 
	C336.913300,641.738037 336.681976,641.548401 336.560364,641.218872 
z" data-index="126"></path>
<path fill="#0C140E" opacity="1.000000" stroke="none" d="
M365.928040,320.149658 
	C365.980621,320.349670 365.771545,320.646759 365.304077,321.044739 
	C365.252594,320.846039 365.459473,320.546387 365.928040,320.149658 
z" data-index="127"></path>
<path fill="#0A1A0B" opacity="1.000000" stroke="none" d="
M607.970215,695.627808 
	C607.943481,695.384155 608.194702,695.180664 608.703735,694.920288 
	C608.723755,695.131592 608.485962,695.399841 607.970215,695.627808 
z" data-index="128"></path>
<path fill="#0C140E" opacity="1.000000" stroke="none" d="
M477.787903,262.144623 
	C478.021271,262.035583 478.012360,262.484772 478.016602,262.709351 
	C478.020874,262.933929 477.534027,263.024231 477.292297,263.078613 
	C477.218536,262.839874 477.386536,262.546783 477.787903,262.144623 
z" data-index="129"></path>
<path fill="#172C1B" opacity="1.000000" stroke="none" d="
M633.887085,618.987366 
	C631.573792,625.847534 625.404968,628.050964 619.064941,630.553162 
	C617.680725,630.374451 616.843933,630.248596 616.109802,630.467346 
	C604.930847,633.798889 593.656555,636.516052 581.862244,636.085571 
	C581.862244,636.085571 581.952881,636.053284 581.941895,635.739258 
	C581.121582,634.848511 580.312134,634.271729 579.502747,633.695007 
	C579.502747,633.695007 579.407471,633.368286 579.650391,632.791260 
	C579.926331,592.035095 579.967957,551.855896 579.950623,511.676788 
	C579.950134,510.450714 579.335205,509.224884 579.005310,507.624268 
	C579.005005,506.500122 579.006042,505.750671 579.255005,504.818146 
	C579.342468,503.757294 579.181946,502.879486 579.019409,501.532959 
	C578.981873,454.685272 578.946289,408.306366 578.910645,361.927460 
	C578.910645,361.927460 578.607300,362.010437 578.916260,361.816101 
	C579.461304,360.706390 579.697327,359.791016 579.933411,358.875641 
	C579.933411,358.875641 579.956238,358.963196 580.169006,358.865051 
	C580.575745,358.462006 580.769714,358.157074 580.963623,357.852142 
	C580.963623,357.852142 580.958923,357.951141 581.240967,357.947632 
	C582.000305,357.564911 582.477661,357.185760 582.955017,356.806580 
	C582.955017,356.806610 582.979736,356.916534 583.402466,356.936462 
	C599.625977,357.243439 615.426819,357.530457 631.227661,357.817505 
	C631.227661,357.817505 631.200195,357.704529 631.188538,358.102112 
	C631.782104,363.070801 632.820740,367.635651 632.887329,372.214600 
	C632.978699,378.496918 632.053467,384.789642 632.046265,391.078430 
	C631.974731,453.551147 632.002686,516.023987 632.002686,578.496765 
	C632.002686,579.163147 632.003601,579.829529 632.003601,580.495911 
	C632.003723,591.406311 631.913208,602.318115 632.088501,613.225708 
	C632.119507,615.155396 633.259338,617.067261 633.887085,618.987366 
z" data-index="130"></path>
<path fill="#172C1B" opacity="1.000000" stroke="none" d="
M487.105957,420.018921 
	C487.118530,419.530090 487.131104,419.041260 487.715515,418.260651 
	C490.187531,416.835297 492.077179,414.743103 493.989502,414.722168 
	C507.450897,414.574738 520.916931,414.854675 534.381531,414.995880 
	C540.130798,415.056152 540.964172,415.886536 541.000427,421.716034 
	C541.335266,475.512970 541.684326,529.309814 541.984375,583.106934 
	C542.066467,597.834961 542.168213,612.566833 541.906006,627.290588 
	C541.812561,632.534241 540.667542,637.759216 539.623535,643.172791 
	C522.734741,643.820007 506.220825,645.662231 489.719788,643.204651 
	C489.719788,643.204651 489.858215,643.177795 489.796265,642.956299 
	C489.441467,642.505615 489.148621,642.276489 488.855804,642.047363 
	C488.855804,642.047363 488.942719,642.046265 488.963257,641.610352 
	C488.661865,589.004272 488.307190,536.834351 488.034668,484.663940 
	C487.931213,464.855804 488.039551,445.046570 487.976746,425.238068 
	C487.971252,423.497437 487.409393,421.758606 487.105957,420.018921 
z" data-index="131"></path>
<path fill="#172C1B" opacity="1.000000" stroke="none" d="
M396.962341,466.841980 
	C396.962341,466.841980 396.965271,466.386383 397.258240,466.039612 
	C397.759308,465.423737 397.876831,465.119598 397.903809,464.780426 
	C397.903809,464.780426 397.927795,464.934174 398.130798,464.831879 
	C398.513855,464.389343 398.693939,464.049103 398.873993,463.708862 
	C398.873993,463.708862 398.846283,463.895050 399.056396,463.804260 
	C399.471222,463.391205 399.675964,463.069000 399.880707,462.746765 
	C399.880707,462.746765 399.908051,462.859680 400.334686,462.907013 
	C416.886963,462.941223 433.012634,462.928131 449.138275,462.915039 
	C449.138275,462.915039 449.048492,462.944641 449.068481,463.299927 
	C449.719482,467.030762 450.911560,470.409882 450.890167,473.781311 
	C450.754486,495.145721 450.129669,516.508240 450.103821,537.871826 
	C450.082703,555.318542 450.769989,572.764954 450.958374,590.213379 
	C451.111145,604.367615 451.041718,618.525208 450.944366,632.680420 
	C450.925201,635.466187 450.328156,638.247925 449.752380,641.186951 
	C449.462769,641.715637 449.418304,642.088928 449.373871,642.462219 
	C449.373871,642.462219 449.263519,642.417664 448.869446,642.301025 
	C442.601959,642.272827 436.707672,642.709900 430.860565,642.359619 
	C423.853638,641.939697 416.886932,640.847961 409.902832,640.047119 
	C409.902832,640.047119 409.976776,640.027222 409.812195,639.779785 
	C409.020508,639.466980 408.393372,639.401672 407.766235,639.336365 
	C407.766235,639.336365 407.838501,639.418762 407.729370,639.071838 
	C406.041443,638.169678 404.462646,637.614380 402.883820,637.059143 
	C402.883820,637.059143 402.968323,637.038086 402.848389,636.823120 
	C402.383881,636.476685 402.039307,636.345215 401.694763,636.213684 
	C401.694763,636.213684 401.848541,636.275208 401.779816,635.980347 
	C400.672424,634.869019 399.633759,634.052612 398.595093,633.236206 
	C398.595093,633.236206 398.749115,633.112305 398.746429,632.918823 
	C398.459930,632.492432 398.176086,632.259460 397.892273,632.026489 
	C397.892273,632.026489 397.969788,632.029480 397.974030,631.593262 
	C397.639618,576.385376 397.300964,521.613708 396.962341,466.841980 
z" data-index="132"></path>
<path fill="#182616" opacity="1.000000" stroke="none" d="
M540.002441,642.992676 
	C540.667542,637.759216 541.812561,632.534241 541.906006,627.290588 
	C542.168213,612.566833 542.066467,597.834961 541.984375,583.106934 
	C541.684326,529.309814 541.335266,475.512970 541.000427,421.716034 
	C540.964172,415.886536 540.130798,415.056152 534.381531,414.995880 
	C520.916931,414.854675 507.450897,414.574738 493.989502,414.722168 
	C492.077179,414.743103 490.187531,416.835297 487.965424,417.985474 
	C488.729889,413.311035 492.461151,412.372162 496.377747,412.322754 
	C508.995361,412.163574 521.616638,412.142120 534.234924,412.251007 
	C540.713135,412.306915 543.552429,415.286743 543.624634,421.787384 
	C543.788879,436.564117 543.860840,451.341858 543.974182,467.044312 
	C544.036072,497.297577 544.094055,526.625732 544.152039,555.953918 
	C544.112488,582.246216 544.146790,608.539185 543.931458,634.830017 
	C543.907043,637.814148 542.478882,640.786865 541.240967,643.647217 
	C540.581848,643.262390 540.322632,643.083435 540.002441,642.992676 
z" data-index="133"></path>
<path fill="#182616" opacity="1.000000" stroke="none" d="
M634.037109,618.595886 
	C633.259338,617.067261 632.119507,615.155396 632.088501,613.225708 
	C631.913208,602.318115 632.003723,591.406311 632.003601,580.495911 
	C632.003601,579.829529 632.002686,579.163147 632.002686,578.496765 
	C632.002686,516.023987 631.974731,453.551147 632.046265,391.078430 
	C632.053467,384.789642 632.978699,378.496918 632.887329,372.214600 
	C632.820740,367.635651 631.782104,363.070801 631.245422,358.090149 
	C632.229248,360.167542 633.924194,362.648346 633.943481,365.142151 
	C634.253052,405.090820 634.360474,445.041107 634.489563,484.991089 
	C634.627869,527.774658 634.748230,570.558411 634.835327,613.342102 
	C634.838623,614.962402 634.412964,616.583618 634.037109,618.595886 
z" data-index="134"></path>
<path fill="#0C140E" opacity="1.000000" stroke="none" d="
M449.997559,641.031555 
	C450.328156,638.247925 450.925201,635.466187 450.944366,632.680420 
	C451.041718,618.525208 451.111145,604.367615 450.958374,590.213379 
	C450.769989,572.764954 450.082703,555.318542 450.103821,537.871826 
	C450.129669,516.508240 450.754486,495.145721 450.890167,473.781311 
	C450.911560,470.409882 449.719482,467.030762 449.085205,463.255707 
	C450.065552,465.486877 451.885895,468.110870 451.906860,470.749176 
	C452.203217,508.060120 452.225098,545.373108 452.380524,582.685303 
	C452.447784,598.828674 452.797943,614.971985 452.717896,631.113831 
	C452.700470,634.631714 451.394012,638.143188 450.334473,641.572998 
	C449.987762,641.488403 449.997559,641.031555 449.997559,641.031555 
z" data-index="135"></path>
<path fill="#0C140E" opacity="1.000000" stroke="none" d="
M487.046814,420.483398 
	C487.409393,421.758606 487.971252,423.497437 487.976746,425.238068 
	C488.039551,445.046570 487.931213,464.855804 488.034668,484.663940 
	C488.307190,536.834351 488.661865,589.004272 488.952332,641.652405 
	C488.299896,639.157837 487.141907,636.186218 487.136688,633.212524 
	C487.012024,562.457764 487.011139,491.702789 487.046814,420.483398 
z" data-index="136"></path>
<path fill="#0C140E" opacity="1.000000" stroke="none" d="
M579.006714,507.998962 
	C579.335205,509.224884 579.950134,510.450714 579.950623,511.676788 
	C579.967957,551.855896 579.926331,592.035095 579.778809,632.679565 
	C579.109680,630.690125 578.555115,628.235291 578.002441,624.907410 
	C577.952637,612.706604 577.900879,601.378845 577.849121,590.051086 
	C577.901245,563.006775 577.953369,535.962463 578.293640,508.458679 
	C578.581848,507.999146 579.006714,507.998962 579.006714,507.998962 
z" data-index="137"></path>
<path fill="#04050A" opacity="1.000000" stroke="none" d="
M396.616302,467.112854 
	C397.300964,521.613708 397.639618,576.385376 397.963928,631.630737 
	C397.306946,629.772034 396.108124,627.440857 396.103271,625.107178 
	C395.994659,573.022095 396.016937,520.936768 396.026184,468.851471 
	C396.026276,468.362244 396.185394,467.872986 396.616302,467.112854 
z" data-index="138"></path>
<path fill="#04050A" opacity="1.000000" stroke="none" d="
M578.520996,362.130096 
	C578.946289,408.306366 578.981873,454.685272 578.804077,501.530243 
	C578.590637,501.996307 578.160400,501.988953 578.160400,501.988953 
	C578.104065,464.246887 578.036743,426.504852 577.999573,388.762787 
	C577.990845,379.952820 578.084595,371.142761 578.520996,362.130096 
z" data-index="139"></path>
<path fill="#FEFD85" opacity="1.000000" stroke="none" d="
M341.426025,752.660522 
	C341.083618,719.294312 341.020081,685.622864 341.030823,651.489380 
	C341.401642,652.265076 341.955353,653.502380 341.957153,654.740540 
	C342.003540,686.626648 341.994110,718.512817 341.979340,750.398987 
	C341.979034,751.051208 341.800323,751.703247 341.426025,752.660522 
z" data-index="140"></path>
<path fill="#0C140E" opacity="1.000000" stroke="none" d="
M448.931732,462.571198 
	C433.012634,462.928131 416.886963,462.941223 400.277863,462.894958 
	C401.937256,462.215942 404.073029,461.090118 406.224091,461.060211 
	C418.648712,460.887482 431.077332,460.924774 443.503479,461.027924 
	C445.247253,461.042419 446.984772,461.808929 448.931732,462.571198 
z" data-index="141"></path>
<path fill="#04050A" opacity="1.000000" stroke="none" d="
M539.623535,643.172791 
	C540.322632,643.083435 540.581848,643.262390 540.881836,643.746582 
	C538.850342,644.643311 536.725342,645.879578 534.582703,645.911072 
	C522.037659,646.095764 509.486755,646.104004 496.942230,645.901245 
	C494.646057,645.864136 492.370026,644.582336 489.902222,643.539917 
	C506.220825,645.662231 522.734741,643.820007 539.623535,643.172791 
z" data-index="142"></path>
<path fill="#FEFD85" opacity="1.000000" stroke="none" d="
M544.427734,555.647949 
	C544.094055,526.625732 544.036072,497.297577 544.053101,467.509521 
	C544.414673,468.289978 544.949158,469.529877 544.951294,470.770660 
	C544.998779,498.309326 544.989380,525.848145 544.975403,553.386902 
	C544.975037,554.038635 544.798035,554.690247 544.427734,555.647949 
z" data-index="143"></path>
<path fill="#0C140E" opacity="1.000000" stroke="none" d="
M582.068237,636.415466 
	C593.656555,636.516052 604.930847,633.798889 616.109802,630.467346 
	C616.843933,630.248596 617.680725,630.374451 618.713928,630.591797 
	C609.150269,633.137268 599.374084,635.584900 589.510803,637.608154 
	C587.252625,638.071289 584.694397,637.071716 582.068237,636.415466 
z" data-index="144"></path>
<path fill="#04050A" opacity="1.000000" stroke="none" d="
M410.132202,640.358765 
	C416.886932,640.847961 423.853638,641.939697 430.860565,642.359619 
	C436.707672,642.709900 442.601959,642.272827 448.917969,642.266663 
	C447.918121,642.941895 446.423523,644.148865 445.041382,644.031494 
	C433.469727,643.048889 421.918762,641.822998 410.132202,640.358765 
z" data-index="145"></path>
<path fill="#04050A" opacity="1.000000" stroke="none" d="
M630.985962,357.498047 
	C615.426819,357.530457 599.625977,357.243439 583.346130,356.938293 
	C584.262573,356.610352 585.656616,356.038910 587.053711,356.031433 
	C599.877441,355.962860 612.702026,355.947327 625.525330,356.045410 
	C627.267761,356.058716 629.004822,356.783325 630.985962,357.498047 
z" data-index="146"></path>
<path fill="#FEFD85" opacity="1.000000" stroke="none" d="
M577.573547,590.356384 
	C577.900879,601.378845 577.952637,612.706604 577.928772,624.494629 
	C577.570923,622.239685 577.055054,619.524963 577.049316,616.809082 
	C577.030762,608.093567 577.200745,599.377502 577.573547,590.356384 
z" data-index="147"></path>
<path fill="#FEFD85" opacity="1.000000" stroke="none" d="
M288.456787,512.660706 
	C288.130707,502.634460 288.076263,492.295685 288.094482,481.494629 
	C288.450226,485.393250 288.915527,489.751831 288.972229,494.115753 
	C289.051239,500.191132 288.824371,506.270538 288.456787,512.660706 
z" data-index="148"></path>
<path fill="#04050A" opacity="1.000000" stroke="none" d="
M403.062683,637.364136 
	C404.462646,637.614380 406.041443,638.169678 407.680878,639.097351 
	C406.241486,638.869568 404.741516,638.269409 403.062683,637.364136 
z" data-index="149"></path>
<path fill="#0C140E" opacity="1.000000" stroke="none" d="
M578.082642,502.362488 
	C578.160400,501.988953 578.590637,501.996307 578.806030,501.999023 
	C579.181946,502.879486 579.342468,503.757294 579.042358,504.817993 
	C578.581726,505.000885 578.157227,505.009125 578.157227,505.009125 
	C578.106445,504.251404 578.055664,503.493713 578.082642,502.362488 
z" data-index="150"></path>
<path fill="#0C140E" opacity="1.000000" stroke="none" d="
M579.637024,633.947754 
	C580.312134,634.271729 581.121582,634.848511 581.924011,635.783936 
	C581.201782,635.495239 580.486572,634.847900 579.637024,633.947754 
z" data-index="151"></path>
<path fill="#04050A" opacity="1.000000" stroke="none" d="
M398.682800,633.559753 
	C399.633759,634.052612 400.672424,634.869019 401.722046,636.039673 
	C400.745483,635.557007 399.758026,634.720154 398.682800,633.559753 
z" data-index="152"></path>
<path fill="#04050A" opacity="1.000000" stroke="none" d="
M578.088074,505.378662 
	C578.157227,505.009125 578.581726,505.000885 578.794434,505.001038 
	C579.006042,505.750671 579.005005,506.500122 579.005310,507.624268 
	C579.006714,507.998962 578.581848,507.999146 578.370300,507.994995 
	C578.112122,507.243286 578.065552,506.495758 578.088074,505.378662 
z" data-index="153"></path>
<path fill="#04050A" opacity="1.000000" stroke="none" d="
M579.639526,359.051697 
	C579.697327,359.791016 579.461304,360.706390 578.849243,361.673859 
	C578.763977,360.893219 579.054810,360.060486 579.639526,359.051697 
z" data-index="154"></path>
<path fill="#04050A" opacity="1.000000" stroke="none" d="
M582.634521,356.835449 
	C582.477661,357.185760 582.000305,357.564911 581.192932,357.935333 
	C581.346619,357.572479 581.830322,357.218384 582.634521,356.835449 
z" data-index="155"></path>
<path fill="#04050A" opacity="1.000000" stroke="none" d="
M407.930847,639.604980 
	C408.393372,639.401672 409.020508,639.466980 409.816345,639.817871 
	C409.355194,640.026733 408.725342,639.950134 407.930847,639.604980 
z" data-index="156"></path>
<path fill="#04050A" opacity="1.000000" stroke="none" d="
M401.776825,636.494507 
	C402.039307,636.345215 402.383881,636.476685 402.851196,636.866577 
	C402.602264,637.008423 402.230560,636.891907 401.776825,636.494507 
z" data-index="157"></path>
<path fill="#04050A" opacity="1.000000" stroke="none" d="
M398.591797,463.801361 
	C398.693939,464.049103 398.513855,464.389343 398.053040,464.828552 
	C397.951385,464.582947 398.130493,464.238403 398.591797,463.801361 
z" data-index="158"></path>
<path fill="#0C140E" opacity="1.000000" stroke="none" d="
M399.604919,462.831360 
	C399.675964,463.069000 399.471222,463.391205 398.970673,463.765381 
	C398.892944,463.516876 399.111023,463.216400 399.604919,462.831360 
z" data-index="159"></path>
<path fill="#04050A" opacity="1.000000" stroke="none" d="
M580.706543,357.954651 
	C580.769714,358.157074 580.575745,358.462006 580.123779,358.867493 
	C580.060364,358.664398 580.254944,358.360748 580.706543,357.954651 
z" data-index="160"></path>
<path fill="#04050A" opacity="1.000000" stroke="none" d="
M397.963562,632.305542 
	C398.176086,632.259460 398.459930,632.492432 398.785614,633.009583 
	C398.563293,633.057373 398.299103,632.820984 397.963562,632.305542 
z" data-index="161"></path>
<path fill="#04050A" opacity="1.000000" stroke="none" d="
M449.752380,641.186951 
	C449.997559,641.031555 449.987762,641.488403 449.991455,641.716858 
	C449.995178,641.945312 449.783600,642.324707 449.578735,642.393433 
	C449.418304,642.088928 449.462769,641.715637 449.752380,641.186951 
z" data-index="162"></path>
<path fill="#0C140E" opacity="1.000000" stroke="none" d="
M488.935150,642.318481 
	C489.148621,642.276489 489.441467,642.505615 489.774536,643.023376 
	C489.548035,643.071228 489.281250,642.830444 488.935150,642.318481 
z" data-index="163"></path>
<path fill="#04050A" opacity="1.000000" stroke="none" d="
M397.658722,464.886505 
	C397.876831,465.119598 397.759308,465.423737 397.346100,465.829437 
	C397.231873,465.641541 397.322754,465.317047 397.658722,464.886505 
z" data-index="164"></path>
</svg>